# xmcd CD database file
#
# Track frame offsets:
#	150
#	17645
#	37641
#	55881
#	73891
#	91288
#	108267
#	127099
#	145660
#	163134
#
# Disc length: 2381 seconds
#
# Revision: 3
# Processed by: cddbd v1.5.2PL0 Copyright (c) Steve Scherf et al.
# Submitted via: CDex 1.50Beta7
#
DISCID=82094b0a
DTITLE=Willie Nelson - Without a Song
DYEAR=2003
DGENRE=Country
TTITLE0=Without a Song
TTITLE1=Once in a While
TTITLE2=Autumn Leaves
TTITLE3=I Can't Begin to Tell You
TTITLE4=Harbor Lights
TTITLE5=Golden Earrings
TTITLE6=You'll Never Know
TTITLE7=To Each His Own
TTITLE8=As Time Goes By
TTITLE9=Dreamer's Holiday
EXTD=YEAR: 2003
EXTT0=
EXTT1=
EXTT2=
EXTT3=
EXTT4=
EXTT5=
EXTT6=
EXTT7=
EXTT8=
EXTT9=
PLAYORDER=
